<?xml version="1.0" encoding="UTF-8"?>
<svg id="Capa_1" data-name="Capa 1" xmlns="http://www.w3.org/2000/svg" viewBox="0 0 512 512">
  <defs>
    <style>
      .cls-1 {
        fill: #7640e3;
      }

      .cls-2 {
        fill: #fff;
      }
    </style>
  </defs>
  <rect class="cls-1" x="25.03" y="24.66" width="461.93" height="462.67" rx="98.85" ry="98.85"/>
  <g>
    <g>
      <path class="cls-2" d="M284.56,380.93l-57.7-.04c-11.31,0-23.19-7.89-28.18-18.11-2.24.14-4.41-.02-6.45-.96-3.95-1.82-6.57-5.64-6.96-9.95l.04-9.39c.28-6.94,6.32-12.11,13.28-11.3,5.71-11,16.95-17.96,29.33-18.2l21.53-.03v-25.71c-4.89-2.37-8.14-7.06-8.58-12.61-.37-4.72,1.61-9.32,5.03-12.38s8.3-4.55,12.96-3.64c5.89,1.16,10.42,5.46,11.87,11.23.76,2.84.68,5.65-.27,8.44-1.26,3.96-4.03,7.18-7.86,8.99v25.68s21.86.05,21.86.05c12.27.25,23.35,7.25,29.02,18.17,6.76-.8,12.67,4.06,13.18,10.91l.09,9.63c-.62,7.02-6.21,11.76-13.4,11.1-5.15,10.46-17.06,18.15-28.79,18.14Z"/>
      <g>
        <path class="cls-2" d="M303.21,324.14c.79.69,1.54,1.43,2.24,2.22l.3.29c.5.62.91,1.24,1.23,1.86.41.27,1.14,1.19,1.33,1.66.35.85-.35,1.52-1.15,1.47l-1.96-1.93c-5.15-4.07-11.52-6.85-18.26-6.86l-53.78-.09c-3.76,0-7.27.31-10.81,1.47-6.09,1.99-11.31,5.88-15,11.07-5.75,8.07-6.82,18.39-3.16,27.55l.75,1.88-.9-.35-1.95-3.07c-4.63-8.79-4.82-18.67-.58-27.69,1.68-3.56,4.04-6.46,6.89-9.16,3.21-3.05,7.04-5.08,11.28-6.4,3.05-.95,5.94-1.35,9.19-1.35h52.35s2.21-.02,2.21-.02c6.89-.06,15.01,2.73,19.81,7.43Z"/>
        <circle class="cls-2" cx="256.04" cy="273.55" r="11.44"/>
        <rect class="cls-2" x="253.15" y="288.51" width="5.72" height="24.47"/>
        <path class="cls-2" d="M322.99,351.09c0,2.55-1.15,4.67-2.98,6.29-1.37,1.13-3.08,1.68-4.92,1.75,2.94-7.84,3.03-16.3-.02-24.25,4.23-.2,7.91,3.75,7.91,7.69v8.51Z"/>
        <path class="cls-2" d="M196.96,359.13c-4.36-.07-7.9-3.49-7.9-7.8v-9.1c0-1.53.73-2.95,1.58-4.12,1.43-1.97,3.6-3.3,6.22-3.17-2.9,7.96-2.9,16.37.1,24.2Z"/>
        <path class="cls-2" d="M311.89,337.16c-.05.04-.02.31-.06.41-.02.05-.06.13-.22.04l-3.58-5.09-.87-.87c.38-.59,1.36-.83.91-1.5l-1.09-1.63c-.14-.29-.04-.3.3-.04,2.1,2.58,3.56,5.53,4.61,8.68Z"/>
        <path class="cls-2" d="M305.45,326.37c-.94-.55-1.45-1.45-2.24-2.22.75.37,1.76,1.41,2.24,2.22Z"/>
        <path class="cls-2" d="M307.29,328.48l-.3.04-.84-1.13c-.2-.27-.42-.43-.38-.73.56.55,1.01,1.18,1.53,1.82Z"/>
        <g>
          <path class="cls-2" d="M307.17,331.64l.36-.15c.66.52,4.38,5.61,4.12,5.87-.01.01-.1-.25.25-.2,1.18,2.95,1.57,6.06,1.71,9.25.13,2.85-.33,5.57-1.06,8.34-3.33,12.65-15.09,22.44-28.26,22.44h-56.71c-9.08.01-18.87-5.44-23.54-12.8l.24-.32c-8.93-19.76,6.17-41.99,27.68-41.65l54.99.08c7.52.08,15.12,3.41,20.29,8.72l-.07.44Z"/>
          <g>
            <circle class="cls-2" cx="280.89" cy="346.98" r="12.04"/>
            <circle class="cls-1" cx="280.9" cy="346.98" r="8.28"/>
          </g>
          <g>
            <circle class="cls-2" cx="231.17" cy="346.96" r="12.04"/>
            <circle class="cls-1" cx="231.18" cy="346.96" r="8.28"/>
          </g>
        </g>
      </g>
    </g>
    <g>
      <path class="cls-2" d="M254.86,201.32c-4.47.51-8.03,3.13-10.11,6.96l-32.53,59.67-27.38,50.24-7.19,13.22-24.72,45.5-2.12,3.53c-.22.36-.61.58-1.11.58l-19.82-.04c-5.88-.01-11.32-3.1-14.49-8.07-3.3-5.16-3.62-11.97-.65-17.44l31.5-57.99,26.65-49.03,30.73-56.45,16.66-30.73,6.7-12.42c4.56-8.46,11.22-14.25,20.59-16.72,5.71-1.5,11.46-1.54,17.16.08,9.34,2.65,15.68,7.98,20.29,16.5l21.51,39.74,22.42,41.18,27.28,50.2,31.73,58.33,9.03,16.58c3.29,6.04,3.14,13.29-.89,18.92-3.3,4.61-8.61,7.33-14.32,7.33l-21.07.02c-.81,0-1.34-.36-1.74-1.1l-10.49-19.56-15.36-28.61-21.03-39.14-27.57-51.51-16.13-30.15-2.62-4.66c-2.46-3.4-6.57-5.44-10.91-4.95Z"/>
      <path class="cls-2" d="M276.25,143.09c2.14,2.08,3.82,4.49,5.25,7.14l5.62,10.4,4.83,8.86,4.53,8.45,5.45,10.07,15.94,29.25,9.68,17.73,15.66,28.81,5.99,11.01,12.12,22.24,4.83,8.88,4.84,8.91,22.72,41.73c.97,1.78,1.61,3.46,1.81,5.45.85,8.47-5.62,15.22-13.92,15.21l-19.76-.02-3.48-6.39-28.96-54.04-7.59-14.09-42.52-79.42-7.25-13.62-1.7-3.21c-2.12-4.34-5.91-7.55-10.71-8.55-3.9-.81-7.89-.28-11.36,1.6-3.29,1.78-5.52,4.45-7.29,7.71l-11.03,20.3-28.68,52.7-5.77,10.5-15.1,27.77-18.85,34.65-13.11,24.09-18.16.02c-2.63,0-5.01-.7-7.14-1.97l.21-.23c.57.02,1.14.21,1.72.57-3.38-5.88-3.31-13.1-.32-19.13,35.73-65.77,71.52-131.77,107.37-197.98,7.76-16.26,27.96-24.73,44.15-15.39Z"/>
      <path class="cls-2" d="M269.92,138.32c.5.5,1.11.87,1.82,1.11,1.64,1.01,3.07,2.25,4.51,3.65-.05.05-.1.19-.16.19-.69-.08-6.65-3.91-15.05-3.7-7.36.18-14.36,2.96-19.9,7.73l-3.5,3.53c-2.11,2.4-3.68,4.99-5.22,7.82l-26.09,48.1-13.14,24.34-11.23,20.66-6.61,12.17-14.74,27.23-12.73,23.49-12.85,23.54-9.69,17.86c-3.31,6.11-3.52,14.09.47,20.04-1.11.08-1.86-.85-2.72-.82-6.61-3.94-8.35-12.07-4.69-18.76l7-12.81,11.8-21.71,9.73-17.85,36.21-66.63,9.74-17.87,24.34-44.8,7.04-12.99,6.55-12.02c1.48-2.71,3.24-5.18,5.52-7.28,6.9-6.35,15.63-8.89,24.88-7.25,3.16.56,6.07,1.42,8.69,3.03Z"/>
      <path class="cls-2" d="M271.74,139.44c-.75-.15-1.75-.62-1.82-1.11l1.82,1.11Z"/>
    </g>
  </g>
</svg>