<?xml version="1.0" encoding="UTF-8"?>
<svg id="Capa_1" data-name="Capa 1" xmlns="http://www.w3.org/2000/svg" viewBox="0 0 1782.79 398.68">
  <defs>
    <style>
      .cls-1, .cls-2 {
        fill: #7640e3;
      }

      .cls-3 {
        fill: #fff;
      }

      .cls-4 {
        font-family: DysonSansModern-Regular, 'Dyson Sans Modern';
        font-size: 267.43px;
      }

      .cls-5 {
        stroke: #000;
      }

      .cls-2 {
        letter-spacing: 0em;
      }
    </style>
  </defs>
  <g>
    <g>
      <path class="cls-1" d="M294.22,366.68l-79.68-.06c-15.61-.01-32.03-10.9-38.91-25-3.1.2-6.09-.03-8.91-1.33-5.46-2.52-9.08-7.78-9.61-13.75l.05-12.97c.38-9.58,8.73-16.73,18.34-15.61,7.89-15.19,23.4-24.8,40.5-25.13l29.73-.05v-35.5c-6.75-3.28-11.24-9.75-11.85-17.42-.51-6.52,2.22-12.86,6.95-17.1,4.83-4.33,11.46-6.29,17.9-5.03,8.14,1.6,14.39,7.53,16.39,15.51,1.04,3.93.94,7.8-.37,11.65-1.74,5.47-5.56,9.91-10.85,12.42v35.46s30.19.07,30.19.07c16.94.35,32.25,10.01,40.07,25.09,9.33-1.1,17.5,5.6,18.2,15.06l.13,13.29c-.86,9.69-8.57,16.24-18.51,15.33-7.11,14.44-23.56,25.07-39.76,25.05Z"/>
      <g>
        <path class="cls-1" d="M319.98,288.26c1.09.96,2.12,1.98,3.09,3.07l.42.41c.69.85,1.25,1.71,1.69,2.57.57.38,1.57,1.64,1.84,2.29.48,1.17-.49,2.1-1.59,2.03l-2.71-2.67c-7.12-5.63-15.91-9.46-25.22-9.47l-74.27-.12c-5.19,0-10.04.43-14.93,2.03-8.4,2.74-15.61,8.13-20.72,15.29-7.94,11.14-9.42,25.39-4.37,38.05l1.04,2.6-1.24-.48-2.69-4.25c-6.39-12.13-6.66-25.78-.81-38.23,2.31-4.92,5.58-8.92,9.51-12.65,4.44-4.21,9.73-7.02,15.57-8.83,4.21-1.31,8.2-1.86,12.69-1.86h72.29s3.05-.02,3.05-.02c9.52-.08,20.72,3.78,27.36,10.26Z"/>
        <circle class="cls-1" cx="254.84" cy="218.4" r="15.8"/>
        <rect class="cls-1" x="237.9" y="252" width="33.79" height="7.91" transform="translate(-1.22 510.69) rotate(-89.99)"/>
        <path class="cls-1" d="M347.28,325.48c0,3.53-1.58,6.45-4.11,8.69-1.89,1.57-4.26,2.32-6.8,2.41,4.06-10.82,4.18-22.51-.02-33.48,5.84-.28,10.92,5.17,10.92,10.63v11.75Z"/>
        <path class="cls-1" d="M173.25,336.58c-6.02-.1-10.91-4.82-10.91-10.78v-12.57c-.01-2.12,1-4.07,2.18-5.68,1.98-2.73,4.98-4.56,8.59-4.38-4,11-4.01,22.6.14,33.41Z"/>
        <path class="cls-1" d="M331.96,306.24c-.07.05-.03.43-.08.56-.03.07-.09.18-.3.06l-4.95-7.03-1.2-1.2c.52-.82,1.88-1.14,1.26-2.07l-1.51-2.25c-.2-.4-.06-.42.42-.06,2.9,3.56,4.92,7.64,6.36,11.99Z"/>
        <path class="cls-1" d="M323.07,291.33c-1.29-.76-2.01-2.01-3.09-3.07,1.04.51,2.44,1.95,3.09,3.07Z"/>
        <path class="cls-1" d="M325.6,294.25l-.42.06-1.16-1.56c-.28-.38-.58-.59-.53-1,.78.76,1.4,1.63,2.11,2.51Z"/>
        <g>
          <path class="cls-1" d="M325.43,298.62l.49-.21c.91.72,6.04,7.74,5.7,8.1-.02.02-.13-.35.34-.28,1.63,4.07,2.16,8.37,2.36,12.78.18,3.94-.46,7.69-1.46,11.51-4.6,17.47-20.84,30.99-39.03,30.99h-78.31c-12.54.02-26.06-7.51-32.51-17.68l.33-.45c-12.34-27.28,8.53-57.99,38.22-57.52l75.94.11c10.38.11,20.89,4.71,28.02,12.04l-.1.6Z"/>
          <g>
            <circle class="cls-1" cx="289.15" cy="319.8" r="16.63"/>
            <circle class="cls-5" cx="289.16" cy="319.8" r="11.44"/>
          </g>
          <g>
            <circle class="cls-1" cx="220.49" cy="319.77" r="16.63"/>
            <circle class="cls-5" cx="220.5" cy="319.78" r="11.44"/>
          </g>
        </g>
      </g>
    </g>
    <g>
      <path class="cls-1" d="M253.21,118.66c-6.17.7-11.08,4.32-13.97,9.61l-44.93,82.4-37.81,69.38-9.93,18.26-34.13,62.83-2.93,4.87c-.3.5-.84.8-1.54.8l-27.36-.06c-8.12-.02-15.63-4.28-20.01-11.15s-4.99-16.53-.89-24.08l43.5-80.08,36.8-67.71,42.44-77.96,23.01-42.43,9.25-17.15c6.3-11.68,15.5-19.68,28.44-23.09,7.88-2.08,15.83-2.13,23.7.11,12.9,3.67,21.65,11.02,28.02,22.79l29.7,54.87,30.96,56.87,37.67,69.32,43.82,80.55,12.47,22.89c4.54,8.34,4.34,18.35-1.22,26.13-4.55,6.37-11.89,10.12-19.78,10.13l-29.1.03c-1.12,0-1.85-.5-2.4-1.52l-14.49-27.01-21.21-39.5-29.04-54.05-38.07-71.14-22.27-41.64-3.61-6.44c-3.4-4.69-9.07-7.52-15.07-6.83Z"/>
      <path class="cls-1" d="M282.75,38.24c2.95,2.87,5.28,6.2,7.25,9.86l7.76,14.36,6.67,12.23,6.26,11.67,7.53,13.91,22.01,40.4,13.36,24.48,21.62,39.79,8.27,15.2,16.73,30.71,6.67,12.26,6.68,12.3,31.37,57.62c1.34,2.46,2.22,4.77,2.5,7.52,1.18,11.7-7.76,21.02-19.22,21.01l-27.29-.03-4.8-8.83-40-74.62-10.48-19.45-58.72-109.68-10.01-18.81-2.35-4.43c-2.93-5.99-8.16-10.43-14.79-11.81-5.39-1.12-10.89-.39-15.68,2.2-4.54,2.46-7.62,6.14-10.07,10.65l-15.23,28.03-39.61,72.78-7.96,14.51-20.86,38.34-26.02,47.85-18.1,33.26-25.08.03c-3.63,0-6.92-.97-9.86-2.72l.29-.32c.79.03,1.58.29,2.38.78-4.67-8.13-4.58-18.09-.44-26.41,49.34-90.83,98.76-181.96,148.27-273.4,10.72-22.46,38.61-34.15,60.96-21.25Z"/>
      <path class="cls-1" d="M274.01,31.66c.69.69,1.53,1.21,2.51,1.54,2.27,1.39,4.24,3.1,6.23,5.04-.07.07-.14.27-.22.26-.95-.11-9.19-5.4-20.79-5.11-10.17.25-19.83,4.08-27.48,10.68l-4.83,4.87c-2.91,3.31-5.09,6.9-7.2,10.8l-36.02,66.42-18.14,33.61-15.5,28.53-9.13,16.8-20.35,37.6-17.57,32.43-17.74,32.51-13.38,24.67c-4.57,8.44-4.87,19.45.65,27.67-1.53.12-2.56-1.18-3.75-1.13-9.12-5.44-11.53-16.66-6.48-25.9l9.67-17.69,16.29-29.98,13.44-24.66,50.01-92.01,13.45-24.67,33.62-61.87,9.72-17.94,9.04-16.59c2.04-3.74,4.47-7.15,7.63-10.05,9.53-8.77,21.58-12.27,34.35-10.01,4.37.77,8.38,1.97,12,4.19Z"/>
      <path class="cls-1" d="M276.51,33.2c-1.03-.21-2.41-.85-2.51-1.54l2.51,1.54Z"/>
    </g>
  </g>
  <text class="cls-4" transform="translate(473.44 274.39)"><tspan class="cls-3" x="0" y="0">andala</tspan><tspan class="cls-2" x="844.8" y="0">bot</tspan></text>
</svg>